<?xml version="1.0" encoding="utf-8"?>
<!-- Generator: Adobe Illustrator 19.1.1, SVG Export Plug-In . SVG Version: 6.00 Build 0)  -->
<svg version="1.1" id="Layer_1" xmlns="http://www.w3.org/2000/svg" xmlns:xlink="http://www.w3.org/1999/xlink" x="0px" y="0px"
	 viewBox="74 263 940 700" style="enable-background:new 74 263 940 700;" xml:space="preserve">
<style type="text/css">
	.st0{fill:#B3B3B3;stroke:#E6E6E6;stroke-miterlimit:10;}
	.st1{fill:#FFFFFF;}
	.st2{font-family:'ArialMT';}
	.st3{font-size:10.4823px;}
</style>
<g transform="translate(100,100)">
	<line class="st0" x1="400.3" y1="378.8" x2="500.6" y2="783.5"/>
	<line class="st0" x1="400.3" y1="378.8" x2="568.8" y2="462.9"/>
	<line class="st0" x1="400.3" y1="378.8" x2="524.2" y2="693.2"/>
	<line class="st0" x1="500.6" y1="783.5" x2="562.9" y2="545.2"/>
	<line class="st0" x1="500.6" y1="783.5" x2="342.8" y2="500.2"/>
	<line class="st0" x1="500.6" y1="783.5" x2="353.6" y2="726.6"/>
	<line class="st0" x1="533.7" y1="381.4" x2="342.8" y2="500.2"/>
	<line class="st0" x1="533.7" y1="381.4" x2="524.2" y2="693.2"/>
	<line class="st0" x1="533.7" y1="381.4" x2="436.4" y2="627.6"/>
	<line class="st0" x1="524.2" y1="693.2" x2="308.6" y2="576.1"/>
	<line class="st0" x1="524.2" y1="693.2" x2="488.3" y2="458.6"/>
	<line class="st0" x1="524.2" y1="693.2" x2="310.8" y2="655.3"/>
	<line class="st0" x1="562.9" y1="545.2" x2="470.9" y2="240.8"/>
	<line class="st0" x1="562.9" y1="545.2" x2="310.8" y2="655.3"/>
	<line class="st0" x1="562.9" y1="545.2" x2="414.7" y2="508.9"/>
	<line class="st0" x1="562.9" y1="545.2" x2="404.5" y2="794.7"/>
	<line class="st0" x1="562.9" y1="545.2" x2="374.9" y2="429.8"/>
	<line class="st0" x1="353.6" y1="726.6" x2="573.1" y2="623.1"/>
	<line class="st0" x1="353.6" y1="726.6" x2="492.9" y2="328.1"/>
	<line class="st0" x1="353.6" y1="726.6" x2="342.8" y2="500.2"/>
	<line class="st0" x1="573.1" y1="623.1" x2="374.9" y2="429.8"/>
	<line class="st0" x1="573.1" y1="623.1" x2="404.5" y2="794.7"/>
	<line class="st0" x1="573.1" y1="623.1" x2="419.2" y2="307.3"/>
	<line class="st0" x1="573.1" y1="623.1" x2="354" y2="338.5"/>
	<line class="st0" x1="573.1" y1="623.1" x2="357.1" y2="645.7"/>
	<line class="st0" x1="573.1" y1="623.1" x2="488.3" y2="458.6"/>
	<line class="st0" x1="573.1" y1="623.1" x2="308.6" y2="576.1"/>
	<line class="st0" x1="573.1" y1="623.1" x2="372.4" y2="569.7"/>
	<line class="st0" x1="573.1" y1="623.1" x2="342.8" y2="500.2"/>
	<line class="st0" x1="342.8" y1="500.2" x2="470.9" y2="240.8"/>
	<line class="st0" x1="342.8" y1="500.2" x2="492.9" y2="328.1"/>
	<line class="st0" x1="404.5" y1="794.7" x2="374.9" y2="429.8"/>
	<line class="st0" x1="404.5" y1="794.7" x2="414.7" y2="508.9"/>
	<line class="st0" x1="414.7" y1="508.9" x2="310.8" y2="655.3"/>
	<line class="st0" x1="310.8" y1="655.3" x2="568.8" y2="462.9"/>
	<line class="st0" x1="568.8" y1="462.9" x2="354" y2="338.5"/>
	<line class="st0" x1="419.2" y1="307.3" x2="568.8" y2="462.9"/>
	<line class="st0" x1="492.9" y1="328.1" x2="372.4" y2="569.7"/>
	<line class="st0" x1="492.9" y1="328.1" x2="308.6" y2="576.1"/>
	<line class="st0" x1="492.9" y1="328.1" x2="436.4" y2="627.6"/>
	<line class="st0" x1="488.3" y1="458.6" x2="308.6" y2="576.1"/>
	<line class="st0" x1="488.3" y1="458.6" x2="357.1" y2="645.7"/>
	<line class="st0" x1="488.3" y1="458.6" x2="354" y2="338.5"/>
	<g transform="translate(309.080175640825,78.18434267914591)">
		<circle class="st0" cx="91.2" cy="300.6" r="43.7"/>
		<text transform="matrix(1 0 0 1 74.8727 300.5677)" class="st1 st2 st3">Design</text>
	</g>
	<g transform="translate(423.94986568733043,541.5504610296505)">
		<circle class="st0" cx="76.7" cy="242" r="43.7"/>
		<text transform="matrix(1 0 0 1 64.1343 238.119)" class="st1 st2 st3">Clear</text>
		<text transform="matrix(1 0 0 1 41.4117 249.6492)" class="st1 st2 st3">communication</text>
	</g>
	<g transform="translate(461.88556781305806,81.24726662518702)">
		<circle class="st0" cx="71.9" cy="300.2" r="40.4"/>
		<text transform="matrix(1 0 0 1 53.8959 292.4935)" class="st1 st2 st3">Visually</text>
		<text transform="matrix(1 0 0 1 46.8071 304.0237)" class="st1 st2 st3">compelling</text>
		<text transform="matrix(1 0 0 1 51.4692 315.5545)" class="st1 st2 st3">narrative</text>
	</g>
	<g transform="translate(450.92139586604327,438.11695481542944)">
		<circle class="st0" cx="73.2" cy="255" r="43.7"/>
		<text transform="matrix(1 0 0 1 51.6892 258.8884)" class="st1 st2 st3">Aesthetic</text>
		<text transform="matrix(1 0 0 1 60.7175 270.4187)" class="st1 st2 st3">value</text>
	</g>
	<g transform="translate(495.30706992032776,268.7520056981848)">
		<circle class="st0" cx="67.6" cy="276.5" r="36.8"/>
		<text transform="matrix(1 0 0 1 49.5711 268.7783)" class="st1 st2 st3">Present</text>
		<text transform="matrix(1 0 0 1 48.9881 280.3091)" class="st1 st2 st3">relevant</text>
		<text transform="matrix(1 0 0 1 41.7069 291.8393)" class="st1 st2 st3">information</text>
	</g>
	<g transform="translate(255.61007668333983,476.38245937577454)">
		<circle class="st0" cx="97.9" cy="250.2" r="40.4"/>
		<text transform="matrix(1 0 0 1 76.6836 246.3612)" class="st1 st2 st3">Organize</text>
		<text transform="matrix(1 0 0 1 89.4996 257.8915)" class="st1 st2 st3">in a</text>
		<text transform="matrix(1 0 0 1 86.5899 269.4228)" class="st1 st2 st3">clear</text>
		<text transform="matrix(1 0 0 1 76.394 280.953)" class="st1 st2 st3">hierarchy</text>
	</g>
	<g transform="translate(506.90908784703936,357.9458295313344)">
		<circle class="st0" cx="66.2" cy="265.2" r="40.4"/>
		<text transform="matrix(1 0 0 1 53.931 261.3409)" class="st1 st2 st3">Tell a</text>
		<text transform="matrix(1 0 0 1 54.8089 272.8711)" class="st1 st2 st3">story</text>
	</g>
	<g transform="translate(243.30543229376192,217.2383595865513)">
		<circle class="st0" cx="99.5" cy="283" r="40.4"/>
		<text transform="matrix(1 0 0 1 82.8975 279.1372)" class="st1 st2 st3">Logical</text>
		<text transform="matrix(1 0 0 1 77.3647 290.6674)" class="st1 st2 st3">argument</text>
	</g>
	<g transform="translate(313.9391060759773,554.3270122330428)">
		<circle class="st0" cx="90.6" cy="240.3" r="40.4"/>
		<text transform="matrix(1 0 0 1 69.8898 248.0338)" class="st1 st2 st3">Empathy</text>
	</g>
	<g transform="translate(325.6552872550638,227.15587294586783)">
		<circle class="st0" cx="89.1" cy="281.7" r="40.4"/>
		<text transform="matrix(1 0 0 1 61.7082 285.5698)" class="st1 st2 st3">Perspective</text>
		<text transform="matrix(1 0 0 1 75.1053 297.1)" class="st1 st2 st3">taking</text>
	</g>
	<g transform="translate(206.63801405670944,394.71681682160494)">
		<circle class="st0" cx="104.1" cy="260.5" r="40.4"/>
		<text transform="matrix(1 0 0 1 86.0839 245.1597)" class="st1 st2 st3">Cultural</text>
		<text transform="matrix(1 0 0 1 89.582 256.69)" class="st1 st2 st3">norms</text>
		<text transform="matrix(1 0 0 1 95.3993 268.2202)" class="st1 st2 st3">and</text>
		<text transform="matrix(1 0 0 1 88.1186 279.7514)" class="st1 st2 st3">shared</text>
		<text transform="matrix(1 0 0 1 88.9936 291.2817)" class="st1 st2 st3">values</text>
	</g>
	<g transform="translate(502.004498386773,174.54278169797797)">
		<circle class="st0" cx="66.8" cy="288.4" r="43.7"/>
		<text transform="matrix(1 0 0 1 53.6764 284.5368)" class="st1 st2 st3">Solve</text>
		<text transform="matrix(1 0 0 1 45.2311 296.0676)" class="st1 st2 st3">problems</text>
	</g>
	<g transform="translate(330.74108114505526,-3.647151710962728)">
		<circle class="st0" cx="88.4" cy="310.9" r="36.8"/>
		<text transform="matrix(1 0 0 1 71.5473 303.2307)" class="st1 st2 st3">Shared</text>
		<text transform="matrix(1 0 0 1 71.2553 314.761)" class="st1 st2 st3">point of</text>
		<text transform="matrix(1 0 0 1 77.9628 326.2917)" class="st1 st2 st3">view</text>
	</g>
	<g transform="translate(415.13156164122864,20.216958434546054)">
		<circle class="st0" cx="77.8" cy="307.9" r="36.8"/>
		<text transform="matrix(1 0 0 1 64.0825 292.5252)" class="st1 st2 st3">Tools:</text>
		<text transform="matrix(1 0 0 1 50.7754 304.056)" class="st1 st2 st3">typography,</text>
		<text transform="matrix(1 0 0 1 65.2466 315.5863)" class="st1 st2 st3">color,</text>
		<text transform="matrix(1 0 0 1 62.0381 327.1166)" class="st1 st2 st3">shape,</text>
		<text transform="matrix(1 0 0 1 58.2554 338.6473)" class="st1 st2 st3">line, etc.</text>
	</g>
	<g transform="translate(350.4139809524648,363.03736676973733)">
		<circle class="st0" cx="86" cy="264.5" r="36.8"/>
		<text transform="matrix(1 0 0 1 77.2176 249.1663)" class="st1 st2 st3">In a</text>
		<text transform="matrix(1 0 0 1 70.5228 260.6966)" class="st1 st2 st3">variety</text>
		<text transform="matrix(1 0 0 1 65.8573 272.2268)" class="st1 st2 st3">of media</text>
		<text transform="matrix(1 0 0 1 77.2151 283.7581)" class="st1 st2 st3">and</text>
		<text transform="matrix(1 0 0 1 69.0589 295.2884)" class="st1 st2 st3">venues</text>
	</g>
	<g transform="translate(277.123452189857,296.7975682517049)">
		<circle class="st0" cx="95.2" cy="272.9" r="40.4"/>
		<text transform="matrix(1 0 0 1 79.4979 265.2312)" class="st1 st2 st3">Layers</text>
		<text transform="matrix(1 0 0 1 90.8582 276.7615)" class="st1 st2 st3">of</text>
		<text transform="matrix(1 0 0 1 69.3026 288.2918)" class="st1 st2 st3">information</text>
	</g>
	<g transform="translate(280.01613543043317,136.58297582843272)">
		<circle class="st0" cx="94.9" cy="293.2" r="40.4"/>
		<text transform="matrix(1 0 0 1 83.7976 289.338)" class="st1 st2 st3">User</text>
		<text transform="matrix(1 0 0 1 80.5832 300.8687)" class="st1 st2 st3">needs</text>
	</g>
	<g transform="translate(409.882633093405,169.58063903041995)">
		<circle class="st0" cx="78.4" cy="289" r="40.4"/>
		<text transform="matrix(1 0 0 1 65.622 285.1645)" class="st1 st2 st3">Move</text>
		<text transform="matrix(1 0 0 1 60.6723 296.6953)" class="st1 st2 st3">viewers</text>
	</g>
	<g transform="translate(204.19078390498626,304.05858677314137)">
		<circle class="st0" cx="104.5" cy="272" r="40.4"/>
		<text transform="matrix(1 0 0 1 89.3085 268.1563)" class="st1 st2 st3">Attract</text>
		<text transform="matrix(1 0 0 1 84.3461 279.687)" class="st1 st2 st3">attention</text>
	</g>
	<g transform="translate(259.694854981928,383.7496524744196)">
		<circle class="st0" cx="97.4" cy="261.9" r="36.8"/>
		<text transform="matrix(1 0 0 1 67.1384 269.6073)" class="st1 st2 st3">Teach/Inform</text>
	</g>
	<g transform="translate(256.13684889372774,32.05520066669175)">
		<circle class="st0" cx="97.9" cy="306.4" r="36.8"/>
		<text transform="matrix(1 0 0 1 79.524 302.5586)" class="st1 st2 st3">Change</text>
		<text transform="matrix(1 0 0 1 77.7789 314.0889)" class="st1 st2 st3">behavior</text>
	</g>
	<g transform="translate(389.9914284073485,-79.7491887282914)">
		<circle class="st0" cx="81" cy="320.5" r="40.4"/>
		<text transform="matrix(1 0 0 1 58.523 328.2297)" class="st1 st2 st3">Research</text>
	</g>
</g>
</svg>
