<svg width="940" height="700"><g transform="translate(100,100)"><line class="link" x1="309.080175640825" y1="78.18434267914591" x2="423.94986568733043" y2="541.5504610296505"></line><line class="link" x1="309.080175640825" y1="78.18434267914591" x2="502.004498386773" y2="174.54278169797797"></line><line class="link" x1="309.080175640825" y1="78.18434267914591" x2="450.92139586604327" y2="438.11695481542944"></line><line class="link" x1="423.94986568733043" y1="541.5504610296505" x2="495.30706992032776" y2="268.7520056981848"></line><line class="link" x1="423.94986568733043" y1="541.5504610296505" x2="243.30543229376192" y2="217.2383595865513"></line><line class="link" x1="423.94986568733043" y1="541.5504610296505" x2="255.61007668333983" y2="476.38245937577454"></line><line class="link" x1="461.88556781305806" y1="81.24726662518702" x2="243.30543229376192" y2="217.2383595865513"></line><line class="link" x1="461.88556781305806" y1="81.24726662518702" x2="450.92139586604327" y2="438.11695481542944"></line><line class="link" x1="461.88556781305806" y1="81.24726662518702" x2="350.4139809524648" y2="363.03736676973733"></line><line class="link" x1="450.92139586604327" y1="438.11695481542944" x2="204.19078390498626" y2="304.05858677314137"></line><line class="link" x1="450.92139586604327" y1="438.11695481542944" x2="409.882633093405" y2="169.58063903041995"></line><line class="link" x1="450.92139586604327" y1="438.11695481542944" x2="206.63801405670944" y2="394.71681682160494"></line><line class="link" x1="495.30706992032776" y1="268.7520056981848" x2="389.9914284073485" y2="-79.7491887282914"></line><line class="link" x1="495.30706992032776" y1="268.7520056981848" x2="206.63801405670944" y2="394.71681682160494"></line><line class="link" x1="495.30706992032776" y1="268.7520056981848" x2="325.6552872550638" y2="227.15587294586783"></line><line class="link" x1="495.30706992032776" y1="268.7520056981848" x2="313.9391060759773" y2="554.3270122330428"></line><line class="link" x1="495.30706992032776" y1="268.7520056981848" x2="280.01613543043317" y2="136.58297582843272"></line><line class="link" x1="255.61007668333983" y1="476.38245937577454" x2="506.90908784703936" y2="357.9458295313344"></line><line class="link" x1="255.61007668333983" y1="476.38245937577454" x2="415.13156164122864" y2="20.216958434546054"></line><line class="link" x1="255.61007668333983" y1="476.38245937577454" x2="243.30543229376192" y2="217.2383595865513"></line><line class="link" x1="506.90908784703936" y1="357.9458295313344" x2="280.01613543043317" y2="136.58297582843272"></line><line class="link" x1="506.90908784703936" y1="357.9458295313344" x2="313.9391060759773" y2="554.3270122330428"></line><line class="link" x1="506.90908784703936" y1="357.9458295313344" x2="330.74108114505526" y2="-3.647151710962728"></line><line class="link" x1="506.90908784703936" y1="357.9458295313344" x2="256.13684889372774" y2="32.05520066669175"></line><line class="link" x1="506.90908784703936" y1="357.9458295313344" x2="259.694854981928" y2="383.7496524744196"></line><line class="link" x1="506.90908784703936" y1="357.9458295313344" x2="409.882633093405" y2="169.58063903041995"></line><line class="link" x1="506.90908784703936" y1="357.9458295313344" x2="204.19078390498626" y2="304.05858677314137"></line><line class="link" x1="506.90908784703936" y1="357.9458295313344" x2="277.123452189857" y2="296.7975682517049"></line><line class="link" x1="506.90908784703936" y1="357.9458295313344" x2="243.30543229376192" y2="217.2383595865513"></line><line class="link" x1="243.30543229376192" y1="217.2383595865513" x2="389.9914284073485" y2="-79.7491887282914"></line><line class="link" x1="243.30543229376192" y1="217.2383595865513" x2="415.13156164122864" y2="20.216958434546054"></line><line class="link" x1="313.9391060759773" y1="554.3270122330428" x2="280.01613543043317" y2="136.58297582843272"></line><line class="link" x1="313.9391060759773" y1="554.3270122330428" x2="325.6552872550638" y2="227.15587294586783"></line><line class="link" x1="325.6552872550638" y1="227.15587294586783" x2="206.63801405670944" y2="394.71681682160494"></line><line class="link" x1="206.63801405670944" y1="394.71681682160494" x2="502.004498386773" y2="174.54278169797797"></line><line class="link" x1="502.004498386773" y1="174.54278169797797" x2="256.13684889372774" y2="32.05520066669175"></line><line class="link" x1="330.74108114505526" y1="-3.647151710962728" x2="502.004498386773" y2="174.54278169797797"></line><line class="link" x1="415.13156164122864" y1="20.216958434546054" x2="277.123452189857" y2="296.7975682517049"></line><line class="link" x1="415.13156164122864" y1="20.216958434546054" x2="204.19078390498626" y2="304.05858677314137"></line><line class="link" x1="415.13156164122864" y1="20.216958434546054" x2="350.4139809524648" y2="363.03736676973733"></line><line class="link" x1="409.882633093405" y1="169.58063903041995" x2="204.19078390498626" y2="304.05858677314137"></line><line class="link" x1="409.882633093405" y1="169.58063903041995" x2="259.694854981928" y2="383.7496524744196"></line><line class="link" x1="409.882633093405" y1="169.58063903041995" x2="256.13684889372774" y2="32.05520066669175"></line><g class="node" transform="translate(309.080175640825,78.18434267914591)"><circle cx="0" cy="0" r="50"></circle><text class="label" text-anchor="middle" x="0" y="0" transform="translate(0,0)"><tspan x="0" y="0" dy="0em">Design</tspan></text></g><g class="node" transform="translate(423.94986568733043,541.5504610296505)"><circle cx="0" cy="0" r="50"></circle><text class="label" text-anchor="middle" x="0" y="0" transform="translate(0,-4.4)"><tspan x="0" y="0" dy="0em">Clear</tspan><tspan x="0" y="0" dy="1.1em">communication</tspan></text></g><g class="node" transform="translate(461.88556781305806,81.24726662518702)"><circle cx="0" cy="0" r="46.30495168499706"></circle><text class="label" text-anchor="middle" x="0" y="0" transform="translate(0,-8.8)"><tspan x="0" y="0" dy="0em">Visually</tspan><tspan x="0" y="0" dy="1.1em">compelling</tspan><tspan x="0" y="0" dy="2.2em">narrative</tspan></text></g><g class="node" transform="translate(450.92139586604327,438.11695481542944)"><circle cx="0" cy="0" r="50"></circle><text class="label" text-anchor="middle" x="0" y="0" transform="translate(0,-8.8)"><tspan x="0" y="0" dy="0em"></tspan><tspan x="0" y="0" dy="1.1em">Aesthetic</tspan><tspan x="0" y="0" dy="2.2em">value</tspan></text></g><g class="node" transform="translate(495.30706992032776,268.7520056981848)"><circle cx="0" cy="0" r="42.11088342345191"></circle><text class="label" text-anchor="middle" x="0" y="0" transform="translate(0,-8.8)"><tspan x="0" y="0" dy="0em">Present</tspan><tspan x="0" y="0" dy="1.1em">relevant</tspan><tspan x="0" y="0" dy="2.2em">information</tspan></text></g><g class="node" transform="translate(255.61007668333983,476.38245937577454)"><circle cx="0" cy="0" r="46.30495168499706"></circle><text class="label" text-anchor="middle" x="0" y="0" transform="translate(0,-17.6)"><tspan x="0" y="0" dy="0em"></tspan><tspan x="0" y="0" dy="1.1em">Organize</tspan><tspan x="0" y="0" dy="2.2em">in a</tspan><tspan x="0" y="0" dy="3.3000000000000003em">clear</tspan><tspan x="0" y="0" dy="4.4em">hierarchy</tspan></text></g><g class="node" transform="translate(506.90908784703936,357.9458295313344)"><circle cx="0" cy="0" r="46.30495168499706"></circle><text class="label" text-anchor="middle" x="0" y="0" transform="translate(0,-4.4)"><tspan x="0" y="0" dy="0em">Tell a</tspan><tspan x="0" y="0" dy="1.1em">story</tspan></text></g><g class="node" transform="translate(243.30543229376192,217.2383595865513)"><circle cx="0" cy="0" r="46.30495168499706"></circle><text class="label" text-anchor="middle" x="0" y="0" transform="translate(0,-4.4)"><tspan x="0" y="0" dy="0em">Logical</tspan><tspan x="0" y="0" dy="1.1em">argument</tspan></text></g><g class="node" transform="translate(313.9391060759773,554.3270122330428)"><circle cx="0" cy="0" r="46.30495168499706"></circle><text class="label" text-anchor="middle" x="0" y="0" transform="translate(0,-4.4)"><tspan x="0" y="0" dy="0em"></tspan><tspan x="0" y="0" dy="1.1em">Empathy</tspan></text></g><g class="node" transform="translate(325.6552872550638,227.15587294586783)"><circle cx="0" cy="0" r="46.30495168499706"></circle><text class="label" text-anchor="middle" x="0" y="0" transform="translate(0,-8.8)"><tspan x="0" y="0" dy="0em"></tspan><tspan x="0" y="0" dy="1.1em">Perspective</tspan><tspan x="0" y="0" dy="2.2em">taking</tspan></text></g><g class="node" transform="translate(206.63801405670944,394.71681682160494)"><circle cx="0" cy="0" r="46.30495168499706"></circle><text class="label" text-anchor="middle" x="0" y="0" transform="translate(0,-17.6)"><tspan x="0" y="0" dy="0em">Cultural</tspan><tspan x="0" y="0" dy="1.1em">norms</tspan><tspan x="0" y="0" dy="2.2em">and</tspan><tspan x="0" y="0" dy="3.3000000000000003em">shared</tspan><tspan x="0" y="0" dy="4.4em">values</tspan></text></g><g class="node" transform="translate(502.004498386773,174.54278169797797)"><circle cx="0" cy="0" r="50"></circle><text class="label" text-anchor="middle" x="0" y="0" transform="translate(0,-4.4)"><tspan x="0" y="0" dy="0em">Solve</tspan><tspan x="0" y="0" dy="1.1em">problems</tspan></text></g><g class="node" transform="translate(330.74108114505526,-3.647151710962728)"><circle cx="0" cy="0" r="42.11088342345191"></circle><text class="label" text-anchor="middle" x="0" y="0" transform="translate(0,-8.8)"><tspan x="0" y="0" dy="0em">Shared</tspan><tspan x="0" y="0" dy="1.1em">point of</tspan><tspan x="0" y="0" dy="2.2em">view</tspan></text></g><g class="node" transform="translate(415.13156164122864,20.216958434546054)"><circle cx="0" cy="0" r="42.11088342345191"></circle><text class="label" text-anchor="middle" x="0" y="0" transform="translate(0,-17.6)"><tspan x="0" y="0" dy="0em">Tools:</tspan><tspan x="0" y="0" dy="1.1em">typography,</tspan><tspan x="0" y="0" dy="2.2em">color,</tspan><tspan x="0" y="0" dy="3.3000000000000003em">shape,</tspan><tspan x="0" y="0" dy="4.4em">line, etc.</tspan></text></g><g class="node" transform="translate(350.4139809524648,363.03736676973733)"><circle cx="0" cy="0" r="42.11088342345191"></circle><text class="label" text-anchor="middle" x="0" y="0" transform="translate(0,-17.6)"><tspan x="0" y="0" dy="0em">In a</tspan><tspan x="0" y="0" dy="1.1em">variety</tspan><tspan x="0" y="0" dy="2.2em">of media</tspan><tspan x="0" y="0" dy="3.3000000000000003em">and</tspan><tspan x="0" y="0" dy="4.4em">venues</tspan></text></g><g class="node" transform="translate(277.123452189857,296.7975682517049)"><circle cx="0" cy="0" r="46.30495168499706"></circle><text class="label" text-anchor="middle" x="0" y="0" transform="translate(0,-8.8)"><tspan x="0" y="0" dy="0em">Layers</tspan><tspan x="0" y="0" dy="1.1em">of</tspan><tspan x="0" y="0" dy="2.2em">information</tspan></text></g><g class="node" transform="translate(280.01613543043317,136.58297582843272)"><circle cx="0" cy="0" r="46.30495168499706"></circle><text class="label" text-anchor="middle" x="0" y="0" transform="translate(0,-4.4)"><tspan x="0" y="0" dy="0em">User</tspan><tspan x="0" y="0" dy="1.1em">needs</tspan></text></g><g class="node" transform="translate(409.882633093405,169.58063903041995)"><circle cx="0" cy="0" r="46.30495168499706"></circle><text class="label" text-anchor="middle" x="0" y="0" transform="translate(0,-4.4)"><tspan x="0" y="0" dy="0em">Move</tspan><tspan x="0" y="0" dy="1.1em">viewers</tspan></text></g><g class="node" transform="translate(204.19078390498626,304.05858677314137)"><circle cx="0" cy="0" r="46.30495168499706"></circle><text class="label" text-anchor="middle" x="0" y="0" transform="translate(0,-4.4)"><tspan x="0" y="0" dy="0em">Attract</tspan><tspan x="0" y="0" dy="1.1em">attention</tspan></text></g><g class="node" transform="translate(259.694854981928,383.7496524744196)"><circle cx="0" cy="0" r="42.11088342345191"></circle><text class="label" text-anchor="middle" x="0" y="0" transform="translate(0,-4.4)"><tspan x="0" y="0" dy="0em"></tspan><tspan x="0" y="0" dy="1.1em">Teach/Inform</tspan></text></g><g class="node" transform="translate(256.13684889372774,32.05520066669175)"><circle cx="0" cy="0" r="42.11088342345191"></circle><text class="label" text-anchor="middle" x="0" y="0" transform="translate(0,-4.4)"><tspan x="0" y="0" dy="0em">Change</tspan><tspan x="0" y="0" dy="1.1em">behavior</tspan></text></g><g class="node" transform="translate(389.9914284073485,-79.7491887282914)"><circle cx="0" cy="0" r="46.30495168499706"></circle><text class="label" text-anchor="middle" x="0" y="0" transform="translate(0,-4.4)"><tspan x="0" y="0" dy="0em"></tspan><tspan x="0" y="0" dy="1.1em">Research</tspan></text></g></g></svg>